<mxfile host="65bd71144e">
    <diagram id="oACH8ZhypJP07cCH_AKi" name="Page-1">
        <mxGraphModel dx="1895" dy="779" grid="1" gridSize="10" guides="1" tooltips="1" connect="1" arrows="1" fold="1" page="1" pageScale="1" pageWidth="850" pageHeight="1100" math="0" shadow="0">
            <root>
                <mxCell id="0"/>
                <mxCell id="1" parent="0"/>
                <mxCell id="72" value="" style="ellipse;whiteSpace=wrap;html=1;aspect=fixed;" parent="1" vertex="1">
                    <mxGeometry x="30" y="251.66" width="160" height="160" as="geometry"/>
                </mxCell>
                <mxCell id="2" value="" style="ellipse;shape=cloud;whiteSpace=wrap;html=1;" parent="1" vertex="1">
                    <mxGeometry x="200" y="170" width="380" height="253.33" as="geometry"/>
                </mxCell>
                <mxCell id="7" value="" style="group" parent="1" vertex="1" connectable="0">
                    <mxGeometry x="-10" y="281.65999999999997" width="90" height="60" as="geometry"/>
                </mxCell>
                <mxCell id="8" value="" style="ellipse;whiteSpace=wrap;html=1;" parent="7" vertex="1">
                    <mxGeometry width="90" height="60" as="geometry"/>
                </mxCell>
                <mxCell id="9" value="Generator Actor" style="text;html=1;strokeColor=none;fillColor=none;align=center;verticalAlign=middle;whiteSpace=wrap;rounded=0;" parent="7" vertex="1">
                    <mxGeometry x="22.5" y="18.75" width="45" height="22.5" as="geometry"/>
                </mxCell>
                <mxCell id="22" value="Device 1" style="text;html=1;strokeColor=none;fillColor=none;align=center;verticalAlign=middle;whiteSpace=wrap;rounded=0;" parent="1" vertex="1">
                    <mxGeometry x="80" y="256.65999999999997" width="60" height="30" as="geometry"/>
                </mxCell>
                <mxCell id="25" value="" style="group" parent="1" vertex="1" connectable="0">
                    <mxGeometry x="130" y="281.65999999999997" width="90" height="60" as="geometry"/>
                </mxCell>
                <mxCell id="26" value="" style="ellipse;whiteSpace=wrap;html=1;" parent="25" vertex="1">
                    <mxGeometry width="90" height="60" as="geometry"/>
                </mxCell>
                <mxCell id="27" value="" style="group" parent="25" vertex="1" connectable="0">
                    <mxGeometry width="90" height="60" as="geometry"/>
                </mxCell>
                <mxCell id="28" value="Sender&lt;br&gt;Actor" style="text;html=1;strokeColor=none;fillColor=none;align=center;verticalAlign=middle;whiteSpace=wrap;rounded=0;" parent="27" vertex="1">
                    <mxGeometry x="22.5" y="18.75" width="45" height="22.5" as="geometry"/>
                </mxCell>
                <mxCell id="29" value="Cloud" style="text;html=1;strokeColor=none;fillColor=none;align=center;verticalAlign=middle;whiteSpace=wrap;rounded=0;" parent="1" vertex="1">
                    <mxGeometry x="360" y="170" width="60" height="30" as="geometry"/>
                </mxCell>
                <mxCell id="30" value="Legend" style="text;html=1;strokeColor=none;fillColor=none;align=center;verticalAlign=middle;whiteSpace=wrap;rounded=0;" parent="1" vertex="1">
                    <mxGeometry x="80" y="475" width="60" height="30" as="geometry"/>
                </mxCell>
                <mxCell id="33" value="" style="endArrow=classic;html=1;" parent="1" edge="1">
                    <mxGeometry relative="1" as="geometry">
                        <mxPoint x="80" y="541" as="sourcePoint"/>
                        <mxPoint x="150" y="541" as="targetPoint"/>
                    </mxGeometry>
                </mxCell>
                <mxCell id="34" value="" style="shape=message;html=1;outlineConnect=0;" parent="33" vertex="1">
                    <mxGeometry width="20" height="14" relative="1" as="geometry">
                        <mxPoint x="-10" y="-7" as="offset"/>
                    </mxGeometry>
                </mxCell>
                <mxCell id="35" value="Sends message" style="text;html=1;strokeColor=none;fillColor=none;align=center;verticalAlign=middle;whiteSpace=wrap;rounded=0;" parent="1" vertex="1">
                    <mxGeometry x="143" y="526" width="110" height="30" as="geometry"/>
                </mxCell>
                <mxCell id="45" value="" style="ellipse;whiteSpace=wrap;html=1;aspect=fixed;" parent="1" vertex="1">
                    <mxGeometry x="310" y="436" width="160" height="160" as="geometry"/>
                </mxCell>
                <mxCell id="46" value="" style="group" parent="1" vertex="1" connectable="0">
                    <mxGeometry x="420" y="460" width="90" height="60" as="geometry"/>
                </mxCell>
                <mxCell id="47" value="" style="ellipse;whiteSpace=wrap;html=1;" parent="46" vertex="1">
                    <mxGeometry width="90" height="60" as="geometry"/>
                </mxCell>
                <mxCell id="48" value="Generator Actor" style="text;html=1;strokeColor=none;fillColor=none;align=center;verticalAlign=middle;whiteSpace=wrap;rounded=0;" parent="46" vertex="1">
                    <mxGeometry x="22.5" y="18.75" width="45" height="22.5" as="geometry"/>
                </mxCell>
                <mxCell id="49" value="Device 2" style="text;html=1;strokeColor=none;fillColor=none;align=center;verticalAlign=middle;whiteSpace=wrap;rounded=0;" parent="1" vertex="1">
                    <mxGeometry x="360" y="441" width="60" height="30" as="geometry"/>
                </mxCell>
                <mxCell id="50" value="" style="group" parent="1" vertex="1" connectable="0">
                    <mxGeometry x="270" y="460" width="90" height="60" as="geometry"/>
                </mxCell>
                <mxCell id="51" value="" style="ellipse;whiteSpace=wrap;html=1;" parent="50" vertex="1">
                    <mxGeometry width="90" height="60" as="geometry"/>
                </mxCell>
                <mxCell id="52" value="" style="group" parent="50" vertex="1" connectable="0">
                    <mxGeometry width="90" height="60" as="geometry"/>
                </mxCell>
                <mxCell id="53" value="Sender&lt;br&gt;Actor" style="text;html=1;strokeColor=none;fillColor=none;align=center;verticalAlign=middle;whiteSpace=wrap;rounded=0;" parent="52" vertex="1">
                    <mxGeometry x="22.5" y="18.75" width="45" height="22.5" as="geometry"/>
                </mxCell>
                <mxCell id="55" value="" style="group" parent="1" vertex="1" connectable="0">
                    <mxGeometry x="253" y="350" width="90" height="60" as="geometry"/>
                </mxCell>
                <mxCell id="56" value="" style="ellipse;whiteSpace=wrap;html=1;" parent="55" vertex="1">
                    <mxGeometry width="90" height="60" as="geometry"/>
                </mxCell>
                <mxCell id="57" value="Receiver Actor" style="text;html=1;strokeColor=none;fillColor=none;align=center;verticalAlign=middle;whiteSpace=wrap;rounded=0;" parent="55" vertex="1">
                    <mxGeometry x="22.5" y="18.75" width="45" height="22.5" as="geometry"/>
                </mxCell>
                <mxCell id="58" value="" style="group" parent="1" vertex="1" connectable="0">
                    <mxGeometry x="253" y="200" width="90" height="60" as="geometry"/>
                </mxCell>
                <mxCell id="59" value="" style="ellipse;whiteSpace=wrap;html=1;" parent="58" vertex="1">
                    <mxGeometry width="90" height="60" as="geometry"/>
                </mxCell>
                <mxCell id="60" value="Average Actor" style="text;html=1;strokeColor=none;fillColor=none;align=center;verticalAlign=middle;whiteSpace=wrap;rounded=0;" parent="58" vertex="1">
                    <mxGeometry x="22.5" y="18.75" width="45" height="22.5" as="geometry"/>
                </mxCell>
                <mxCell id="61" value="" style="group" parent="1" vertex="1" connectable="0">
                    <mxGeometry x="430" y="200" width="90" height="60" as="geometry"/>
                </mxCell>
                <mxCell id="62" value="" style="ellipse;whiteSpace=wrap;html=1;" parent="61" vertex="1">
                    <mxGeometry width="90" height="60" as="geometry"/>
                </mxCell>
                <mxCell id="63" value="Square Actor" style="text;html=1;strokeColor=none;fillColor=none;align=center;verticalAlign=middle;whiteSpace=wrap;rounded=0;" parent="61" vertex="1">
                    <mxGeometry x="22.5" y="18.75" width="45" height="22.5" as="geometry"/>
                </mxCell>
                <mxCell id="66" value="" style="shape=cylinder3;whiteSpace=wrap;html=1;boundedLbl=1;backgroundOutline=1;size=15;" parent="1" vertex="1">
                    <mxGeometry x="330" y="261.65999999999997" width="60" height="80" as="geometry"/>
                </mxCell>
                <mxCell id="67" value="" style="endArrow=classic;html=1;" parent="1" source="8" target="26" edge="1">
                    <mxGeometry relative="1" as="geometry">
                        <mxPoint x="160" y="130" as="sourcePoint"/>
                        <mxPoint x="260" y="130" as="targetPoint"/>
                    </mxGeometry>
                </mxCell>
                <mxCell id="68" value="" style="shape=message;html=1;outlineConnect=0;" parent="67" vertex="1">
                    <mxGeometry width="20" height="14" relative="1" as="geometry">
                        <mxPoint x="-10" y="-7" as="offset"/>
                    </mxGeometry>
                </mxCell>
                <mxCell id="69" value="" style="endArrow=classic;html=1;" parent="1" source="47" target="51" edge="1">
                    <mxGeometry relative="1" as="geometry">
                        <mxPoint x="480" y="500" as="sourcePoint"/>
                        <mxPoint x="580" y="500" as="targetPoint"/>
                    </mxGeometry>
                </mxCell>
                <mxCell id="70" value="" style="shape=message;html=1;outlineConnect=0;" parent="69" vertex="1">
                    <mxGeometry width="20" height="14" relative="1" as="geometry">
                        <mxPoint x="-10" y="-7" as="offset"/>
                    </mxGeometry>
                </mxCell>
                <mxCell id="73" value="" style="ellipse;whiteSpace=wrap;html=1;aspect=fixed;" parent="1" vertex="1">
                    <mxGeometry x="610" y="231.65999999999997" width="160" height="160" as="geometry"/>
                </mxCell>
                <mxCell id="74" value="" style="group" parent="1" vertex="1" connectable="0">
                    <mxGeometry x="723" y="248.65999999999997" width="90" height="60" as="geometry"/>
                </mxCell>
                <mxCell id="75" value="" style="ellipse;whiteSpace=wrap;html=1;" parent="74" vertex="1">
                    <mxGeometry width="90" height="60" as="geometry"/>
                </mxCell>
                <mxCell id="76" value="Generator Actor" style="text;html=1;strokeColor=none;fillColor=none;align=center;verticalAlign=middle;whiteSpace=wrap;rounded=0;" parent="74" vertex="1">
                    <mxGeometry x="22.5" y="18.75" width="45" height="22.5" as="geometry"/>
                </mxCell>
                <mxCell id="77" value="Device 1" style="text;html=1;strokeColor=none;fillColor=none;align=center;verticalAlign=middle;whiteSpace=wrap;rounded=0;" parent="1" vertex="1">
                    <mxGeometry x="663" y="231.65999999999997" width="60" height="30" as="geometry"/>
                </mxCell>
                <mxCell id="78" value="" style="group" parent="1" vertex="1" connectable="0">
                    <mxGeometry x="723" y="350.33" width="90" height="60" as="geometry"/>
                </mxCell>
                <mxCell id="79" value="" style="ellipse;whiteSpace=wrap;html=1;" parent="78" vertex="1">
                    <mxGeometry width="90" height="60" as="geometry"/>
                </mxCell>
                <mxCell id="80" value="" style="group" parent="78" vertex="1" connectable="0">
                    <mxGeometry width="90" height="60" as="geometry"/>
                </mxCell>
                <mxCell id="81" value="Sender&lt;br&gt;Actor" style="text;html=1;strokeColor=none;fillColor=none;align=center;verticalAlign=middle;whiteSpace=wrap;rounded=0;" parent="80" vertex="1">
                    <mxGeometry x="22.5" y="18.75" width="45" height="22.5" as="geometry"/>
                </mxCell>
                <mxCell id="82" value="" style="endArrow=classic;html=1;" parent="1" source="75" target="79" edge="1">
                    <mxGeometry relative="1" as="geometry">
                        <mxPoint x="740" y="97" as="sourcePoint"/>
                        <mxPoint x="840" y="97" as="targetPoint"/>
                    </mxGeometry>
                </mxCell>
                <mxCell id="83" value="" style="shape=message;html=1;outlineConnect=0;" parent="82" vertex="1">
                    <mxGeometry width="20" height="14" relative="1" as="geometry">
                        <mxPoint x="-10" y="-7" as="offset"/>
                    </mxGeometry>
                </mxCell>
                <mxCell id="84" value="" style="endArrow=classic;html=1;" parent="1" source="26" target="56" edge="1">
                    <mxGeometry relative="1" as="geometry">
                        <mxPoint x="100" y="150" as="sourcePoint"/>
                        <mxPoint x="200" y="150" as="targetPoint"/>
                    </mxGeometry>
                </mxCell>
                <mxCell id="85" value="" style="shape=message;html=1;outlineConnect=0;" parent="84" vertex="1">
                    <mxGeometry width="20" height="14" relative="1" as="geometry">
                        <mxPoint x="-10" y="-7" as="offset"/>
                    </mxGeometry>
                </mxCell>
                <mxCell id="86" value="" style="endArrow=classic;html=1;" parent="1" source="51" target="56" edge="1">
                    <mxGeometry relative="1" as="geometry">
                        <mxPoint x="130" y="440" as="sourcePoint"/>
                        <mxPoint x="230" y="440" as="targetPoint"/>
                    </mxGeometry>
                </mxCell>
                <mxCell id="87" value="" style="shape=message;html=1;outlineConnect=0;" parent="86" vertex="1">
                    <mxGeometry width="20" height="14" relative="1" as="geometry">
                        <mxPoint x="-10" y="-7" as="offset"/>
                    </mxGeometry>
                </mxCell>
                <mxCell id="88" value="" style="endArrow=classic;html=1;" parent="1" source="79" target="56" edge="1">
                    <mxGeometry relative="1" as="geometry">
                        <mxPoint x="160" y="130" as="sourcePoint"/>
                        <mxPoint x="260" y="130" as="targetPoint"/>
                    </mxGeometry>
                </mxCell>
                <mxCell id="89" value="" style="shape=message;html=1;outlineConnect=0;" parent="88" vertex="1">
                    <mxGeometry width="20" height="14" relative="1" as="geometry">
                        <mxPoint x="-10" y="-7" as="offset"/>
                    </mxGeometry>
                </mxCell>
                <mxCell id="90" value="" style="endArrow=classic;html=1;" parent="1" source="56" target="59" edge="1">
                    <mxGeometry relative="1" as="geometry">
                        <mxPoint x="200" y="170" as="sourcePoint"/>
                        <mxPoint x="300" y="170" as="targetPoint"/>
                    </mxGeometry>
                </mxCell>
                <mxCell id="91" value="" style="shape=message;html=1;outlineConnect=0;" parent="90" vertex="1">
                    <mxGeometry width="20" height="14" relative="1" as="geometry">
                        <mxPoint x="-10" y="-7" as="offset"/>
                    </mxGeometry>
                </mxCell>
                <mxCell id="92" value="" style="endArrow=classic;html=1;" parent="1" source="59" target="62" edge="1">
                    <mxGeometry relative="1" as="geometry">
                        <mxPoint x="310" y="120" as="sourcePoint"/>
                        <mxPoint x="410" y="120" as="targetPoint"/>
                    </mxGeometry>
                </mxCell>
                <mxCell id="93" value="" style="shape=message;html=1;outlineConnect=0;" parent="92" vertex="1">
                    <mxGeometry width="20" height="14" relative="1" as="geometry">
                        <mxPoint x="-10" y="-7" as="offset"/>
                    </mxGeometry>
                </mxCell>
                <mxCell id="96" value="" style="group" vertex="1" connectable="0" parent="1">
                    <mxGeometry x="430" y="301.65999999999997" width="90" height="60" as="geometry"/>
                </mxCell>
                <mxCell id="97" value="" style="ellipse;whiteSpace=wrap;html=1;" vertex="1" parent="96">
                    <mxGeometry width="90" height="60" as="geometry"/>
                </mxCell>
                <mxCell id="98" value="Database Actor" style="text;html=1;strokeColor=none;fillColor=none;align=center;verticalAlign=middle;whiteSpace=wrap;rounded=0;" vertex="1" parent="96">
                    <mxGeometry x="22.5" y="18.75" width="45" height="22.5" as="geometry"/>
                </mxCell>
                <mxCell id="99" value="" style="endArrow=classic;html=1;" edge="1" parent="1" source="62" target="97">
                    <mxGeometry relative="1" as="geometry">
                        <mxPoint x="470" y="140" as="sourcePoint"/>
                        <mxPoint x="570" y="140" as="targetPoint"/>
                    </mxGeometry>
                </mxCell>
                <mxCell id="100" value="" style="shape=message;html=1;outlineConnect=0;" vertex="1" parent="99">
                    <mxGeometry width="20" height="14" relative="1" as="geometry">
                        <mxPoint x="-10" y="-7" as="offset"/>
                    </mxGeometry>
                </mxCell>
                <mxCell id="101" value="" style="endArrow=classic;html=1;" edge="1" parent="1" source="97" target="66">
                    <mxGeometry relative="1" as="geometry">
                        <mxPoint x="420" y="110" as="sourcePoint"/>
                        <mxPoint x="520" y="110" as="targetPoint"/>
                    </mxGeometry>
                </mxCell>
                <mxCell id="102" value="" style="shape=message;html=1;outlineConnect=0;" vertex="1" parent="101">
                    <mxGeometry width="20" height="14" relative="1" as="geometry">
                        <mxPoint x="-10" y="-7" as="offset"/>
                    </mxGeometry>
                </mxCell>
            </root>
        </mxGraphModel>
    </diagram>
</mxfile>